<?xml version="1.0" encoding="UTF-8"?><svg id="_レイヤー_2" xmlns="http://www.w3.org/2000/svg" xmlns:xlink="http://www.w3.org/1999/xlink" viewBox="0 0 40 40"><defs><style>.cls-1{fill:none;}.cls-2{fill:#060001;}.cls-3{fill:#f7d821;}.cls-4{clip-path:url(#clippath);}</style><clipPath id="clippath"><rect class="cls-1" width="40" height="40"/></clipPath></defs><g id="design"><g class="cls-4"><polyline class="cls-3" points="20.97 36.26 9.87 20.41 18.77 16.45 24.64 17.92 26.11 25.25 20.73 36.51"/><path class="cls-2" d="M29.23,14.09c-1.12-.89-2.36-1.56-3.72-2.02l3.76-5.55L19.73,0l-4.18,6.17,7.87,5.37c-.82-.14-1.68-.21-2.57-.21-4.33,0-8.84,1.62-13.4,4.82l-.5.35,4.33,6.07.49-.35c3.2-2.28,6.24-3.44,9.04-3.44,1.25,0,2.37.26,3.24.75,1.05.62,1.54,1.39,1.54,2.44,0,3.84-2.08,7.73-6.36,11.87-.21-.04,4.32,6.14,4.32,6.14,6.3-5.75,9.5-11.81,9.5-18.01,0-3.24-1.28-5.9-3.82-7.9Z"/></g></g></svg>