<?xml version="1.0" encoding="UTF-8"?><svg id="_レイヤー_2" xmlns="http://www.w3.org/2000/svg" viewBox="0 0 396.11 209.21"><defs><style>.cls-1{fill:#ff7dad;}.cls-2{fill:#63d9ff;}.cls-3{fill:#99d44f;}.cls-4{fill:#ff8f00;}.cls-5{fill:#ffd645;}.cls-6{fill:#b054a6;}.cls-7{fill:#eb4045;}</style></defs><g id="design"><path class="cls-7" d="M337.52,195.38c-1.92,2.94-4.26,5.87-7.01,8.7-4.35-3.36-9.3-6.86-14.84-10.35,1.76-2.94,3.1-5.87,4.02-8.7,6.54,3.36,12.48,6.86,17.83,10.35Z"/><path class="cls-2" d="M40.87,208.14c-.75-2.31-1.85-4.69-3.29-7.09,4.51-2.85,8.54-5.71,12.08-8.46,2.25,2.31,4.16,4.69,5.73,7.09-4.36,2.85-9.2,5.71-14.53,8.46Z"/><path class="cls-4" d="M72.81,194.34c.96-3.69.85-7.64-.33-11.39,6.99-.44,13.97-.87,20.93-1.3,1.44,3.69,1.8,7.64,1.08,11.39-7.21.44-14.44.87-21.68,1.3Z"/><path class="cls-1" d="M396.11,144.48c-.9,2.9-2.33,5.82-4.3,8.62-4.75-1.94-9.76-3.94-15.02-5.96,1.23-2.9,1.92-5.83,2.07-8.62,6.01,1.94,11.76,3.94,17.26,5.96Z"/><path class="cls-6" d="M334.13,165.28c-.3-3.3-1.2-6.75-2.72-10.18,6.24-2.6,12.13-5.19,17.67-7.69,2.44,3.3,4.28,6.75,5.5,10.18-6.46,2.6-13.28,5.19-20.44,7.69Z"/><path class="cls-1" d="M20.89,98.99c-1.85,2.8-4.1,5.6-6.75,8.3-4.14-3.24-8.86-6.61-14.14-9.97,1.69-2.8,2.98-5.6,3.88-8.3,6.24,3.24,11.92,6.61,17.01,9.97Z"/><path class="cls-5" d="M357.04,98.74c-3.08.39-6.17.78-9.27,1.17,1.02-5.43.39-11.26-1.89-16.75,2.86-.39,5.72-.78,8.56-1.17,2.51,5.43,3.38,11.26,2.6,16.75Z"/><path class="cls-4" d="M381.3,104.21c-.92-2.24-2.15-4.55-3.69-6.88,4.45-3.12,8.34-6.27,11.67-9.28,2.37,2.24,4.44,4.55,6.19,6.88-4.16,3.12-8.89,6.27-14.17,9.28Z"/><path class="cls-7" d="M46.74,166.83c-1.54,2.45-3.45,4.89-5.7,7.25-3.65-2.72-7.78-5.56-12.38-8.39,1.44-2.45,2.51-4.89,3.24-7.25,5.42,2.72,10.37,5.56,14.85,8.39Z"/><path class="cls-7" d="M29.74,8.39c-1.54,2.45-3.45,4.89-5.7,7.25-3.65-2.72-7.78-5.56-12.38-8.39,1.44-2.45,2.51-4.89,3.24-7.25,5.42,2.72,10.37,5.56,14.85,8.39Z"/><path class="cls-5" d="M49.28,63.85c0,3.12-.75,6.33-2.25,9.36-5.53-.94-11.12-1.9-16.79-2.87,1.03-3.12,1.32-6.33.85-9.36,6.14.94,12.2,1.9,18.2,2.87Z"/><path class="cls-6" d="M44.28,133.23c1.3,2.79,1.87,5.76,1.72,8.63-5.51.73-11.07,1.46-16.68,2.17.52-2.79.31-5.76-.62-8.63,5.24-.73,10.43-1.46,15.57-2.17Z"/><path class="cls-6" d="M228.07,42.1c-2.89,1.77-5.93,3.53-9.11,5.25-1.75-4.8-4.65-9.87-8.7-14.82,2.36-1.77,4.58-3.53,6.64-5.25,4.87,4.8,8.59,9.87,11.16,14.82Z"/><path class="cls-2" d="M293.89,142.99c.48,2.64.21,5.41-.81,8-4.89-.32-9.79-.65-14.7-.98.83-2.63.92-5.41.25-8,5.1.32,10.18.65,15.26.98Z"/><path class="cls-2" d="M5.55,57.24c-.56-2.53-1.53-5.17-2.91-7.8,4.87-2.62,9.33-5.25,13.39-7.77,2.21,2.53,4,5.17,5.38,7.8-4.88,2.62-10.16,5.25-15.85,7.77Z"/><path class="cls-5" d="M113.01,164.34c-2.87,1.44-5.84,2.87-8.92,4.27-1.14-4.79-3.49-9.86-7.04-14.78,2.37-1.44,4.64-2.87,6.8-4.27,4.26,4.79,7.31,9.86,9.16,14.78Z"/><path class="cls-5" d="M294.11,182.13c-3.15-.62-6.37-1.32-9.66-2.1,2.03-4.48,3.29-9.93,3.51-15.99,2.76.32,5.42.58,7.99.8.42,6.39-.28,12.27-1.83,17.29Z"/><path class="cls-1" d="M127.01,22.05c3.43,2.43,6.59,4.93,9.49,7.45-4.16,4.99-9.37,10.05-15.61,14.88-1.85-2.43-3.96-4.93-6.34-7.45,5.19-4.99,9.35-10.05,12.46-14.88Z"/><path class="cls-2" d="M71.7,20.46c-1.09,2.11-2.52,4.23-4.27,6.26-3.26-2-6.85-4.09-10.75-6.17,1.1-2.11,1.87-4.23,2.31-6.26,4.56,2,8.8,4.09,12.72,6.17Z"/><path class="cls-7" d="M285.96,21.66c-1.39-2.48-3.08-5.03-5.08-7.59,5.07-4.15,9.34-8.35,12.8-12.35,3,2.48,5.69,5.03,8.07,7.6-4.46,4.15-9.72,8.35-15.79,12.35Z"/><path class="cls-5" d="M335.32,27.93c-2.67,1.81-5.51,3.6-8.51,5.35-1.93-4.44-4.89-9.12-8.89-13.7,2.18-1.81,4.2-3.6,6.06-5.35,4.81,4.44,8.59,9.12,11.34,13.7Z"/><path class="cls-3" d="M387.69,39.65c1.9,2.52,3.34,5.16,4.32,7.78-4.93,2.05-10.14,4.09-15.64,6.06-.26-2.52-.98-5.16-2.16-7.78,4.77-2.05,9.27-4.09,13.48-6.06Z"/><path class="cls-3" d="M13.69,180.65c1.9,2.52,3.34,5.16,4.32,7.78-4.93,2.05-10.14,4.09-15.64,6.06-.26-2.52-.98-5.16-2.16-7.78,4.77-2.05,9.27-4.09,13.48-6.06Z"/><path class="cls-1" d="M260.78,204.73c-2.03,1.51-4.2,3.01-6.52,4.48-1.72-3.37-4.21-6.92-7.46-10.4,1.66-1.51,3.17-3.01,4.53-4.48,3.91,3.37,7.06,6.92,9.45,10.4Z"/></g></svg>