<?xml version="1.0" encoding="UTF-8"?><svg id="_レイヤー_2" xmlns="http://www.w3.org/2000/svg" viewBox="0 0 315.85 219.01"><defs><style>.cls-1{fill:#060001;}.cls-2{fill:#040000;}.cls-3{fill:#f7d821;}</style></defs><g id="design"><rect class="cls-3" x="180.7" y="194.37" width="16" height="11"/><path d="M211.83,219.01l-3.13-3.75c5.02-4.14,9.25-9.77,12.71-16.91l-5.93-3.09-6.87,8.73-3.84-3.03,9.41-11.92,13.58,7.1c-4.33,10.03-9.64,17.66-15.93,22.87Z"/><path d="M252.61,197.57v20.59h-4.89v-17.4l-9.02,5.96-2.7-4.07,21.08-13.91,2.7,4.1-7.17,4.72Z"/><path d="M294.21,193.47l-2.35-2.25-.91.98c-1.92,4.59-3.91,8.5-5.93,11.7l9.64,10.85-3.65,3.26-8.8-9.9c-2.64,3.62-5.47,6.97-8.5,10l-3.45-3.45c5.6-5.6,10.1-11.73,13.49-18.37h-11.92v-4.89l15.44-.07,2.28-2.35,2.31,2.25,2.28-2.31,2.31,2.25-2.25,2.31Z"/><path d="M148.35,199.91c3.03,1.92,4.56,4.56,4.56,7.92,0,2.54-.85,4.72-2.51,6.55-1.53,1.69-3.58,2.87-6.12,3.55l-1.21-4.5c1.5-.39,2.7-1.04,3.62-1.92,1.04-1.01,1.56-2.21,1.56-3.65,0-3.19-2.05-5.28-6.19-6.22.75-1.3,1.92-3.23,3.45-5.8h-6.12v-4.3h14.04l-5.08,8.37Z"/><path d="M182.86,205.23c-.72,4.85-2.15,9.45-4.3,13.78l-4.1-2.02c1.79-3.65,3.03-7.43,3.71-11.34.52-3.03.78-7,.78-11.86v-3.55h17.75v14.98h-13.85ZM192.15,194.8h-8.63c0,2.18-.07,4.14-.16,5.86h8.8v-5.86ZM194.92,218.91l-7.17-9.09,3.58-2.8,7.17,9.09-3.58,2.8Z"/><path d="M172.02,207.8v11.21h-4.56v-9.94l-2.8.78-.88-4.92,3.68-1.04v-5.51h-3.36v-4.89h3.36v-4.89h4.56v4.89h2.7v4.89h-2.7v4.23l1.86-.52.88,4.92-2.74.78Z"/><polygon class="cls-3" points="205.92 58.37 188.92 46.37 184.92 19.37 211.92 22.37 205.92 58.37"/><polyline class="cls-3" points="77.92 78.37 55.23 45.97 73.42 37.87 85.42 40.87 88.42 55.87 77.42 78.87"/><path class="cls-1" d="M94.81,33.06c-2.29-1.82-4.83-3.2-7.6-4.14l7.68-11.34-19.51-13.32-8.54,12.61,16.08,10.98c-1.68-.28-3.43-.42-5.25-.42-8.85,0-18.06,3.32-27.4,9.86l-1.01.71,8.85,12.41,1-.71c6.54-4.66,12.75-7.02,18.48-7.02,2.56,0,4.85.53,6.63,1.54,2.15,1.26,3.15,2.84,3.15,4.99,0,7.85-4.26,15.81-13,24.26-.43-.09,8.84,12.55,8.84,12.55,12.88-11.76,19.42-24.14,19.42-36.81,0-6.63-2.62-12.06-7.8-16.14Z"/><path class="cls-1" d="M166.61,81.25l-1.11.56c-4.04,2.06-7.81,3.11-11.21,3.11-7.57,0-13.4-4.46-17.83-13.63l-.53-1.1-7.76,3.71,17.99-45.92-14.23-5.59-27.84,71.36,14.23,5.59,6.68-17.26c3.08,5.06,6.81,9.17,11.1,12.23,5.47,3.89,11.59,5.86,18.19,5.86,5.79,0,11.68-1.52,18.02-4.65l1.1-.54-6.81-13.73Z"/><path class="cls-1" d="M211.58,25.36v-15.25h-19.39l.92-8.38-15.15-1.73-1.12,10.11h-12.15v15.25h10.43l-2.54,22.31,1.25.12c5.49.51,9.24,1.25,11.48,2.29,3.69,1.58,5.48,4.22,5.48,8.08s-2.28,6.8-6.96,9.42l-1.08.6,7.52,13.21,1.06-.58c4.3-2.37,7.79-5.48,10.39-9.24,2.86-4.11,4.31-8.57,4.31-13.24,0-5.45-1.63-10.35-4.87-14.57-3.14-3.98-7.11-6.9-11.83-8.68l1.13-9.71h21.11Z"/><path class="cls-1" d="M265.74,85.39c-5.03-5.36-10.23-10.91-15.34-16.44-9.2-10.14-11.7-13.46-12.11-14.4.23-.67,1.8-3.33,11.71-13.14,2.44-2.35,4.88-4.73,7.32-7.11,2.42-2.36,4.84-4.71,7.26-7.05l.91-.88-10.9-10.59-24.3,24.13c-4.88,4.8-7.36,9.71-7.36,14.61,0,4.15,1.91,8.44,5.69,12.76l8.54,9.43c7.33,8.1,13.12,14.5,17.39,19.14l.84.91,11.18-10.47-.84-.9Z"/><polygon class="cls-3" points="95.92 193.37 69.16 158.68 79.92 148.37 84.92 140.37 120.92 142.37 95.92 193.37"/><polygon class="cls-3" points="267.92 171.72 301.92 171.72 301.92 123.72 285.92 119.72 267.92 171.72"/><polygon class="cls-2" points="61.47 146.35 40.81 146.35 40.81 120.14 56.61 120.14 59.06 120.14 59.06 117.68 59.06 104.89 59.06 102.43 56.61 102.43 6.04 102.43 3.58 102.43 3.58 104.89 3.58 117.68 3.58 120.14 6.04 120.14 23.11 120.14 23.11 146.35 2.46 146.35 0 146.35 0 148.81 0 161.6 0 164.06 2.46 164.06 61.47 164.06 63.93 164.06 63.93 161.6 63.93 148.81 63.93 146.35 61.47 146.35"/><path class="cls-2" d="M133.67,126.89h-22.27v-12.88h-17.7v12.88h-24.3v31.6h17.7v-13.9h29.36c-3.13,14.55-10.86,26.75-23.02,36.29l-1.94,1.52-2.58,1.97,11,14,2.55-2.04,1.93-1.52c18.55-14.61,29.02-34.24,31.12-58.34l.6-6.91.23-2.67h-2.68Z"/><path class="cls-2" d="M203.14,149.6l-8.02-10.06-1.54-1.94-1.92,1.56c-10.18,8.25-20.56,14.33-30.88,18.09v-46.86h-17.7v69.38l2.91-.55,7.68-1.45c15.64-2.94,32.15-11.25,49.08-24.71l1.92-1.53-1.53-1.92Z"/><polygon class="cls-2" points="251 125.87 205.84 125.87 203.86 125.87 203.86 128.32 203.86 140.26 203.86 142.72 205.84 142.72 251 142.72 252.98 142.72 252.98 140.26 252.98 128.32 252.98 125.87 251 125.87"/><path class="cls-2" d="M313.39,109.85h-22.83c.31-4.07.47-7.81.47-11.36v-2.46h-17.7v2.46c0,3.58-.18,7.39-.54,11.36h-16.52v17.7h13.82c-2.95,12.79-7.66,23.19-14.03,30.95l-1.55,1.88,1.87,1.56,9.81,8.19,1.9,1.59,1.57-1.92c8.83-10.77,15.07-24.97,18.55-42.25h9.93v44.17h17.7v-61.87h-2.46Z"/></g></svg>