<?xml version="1.0" encoding="UTF-8"?><svg id="_レイヤー_2" xmlns="http://www.w3.org/2000/svg" viewBox="0 0 309.26 90"><defs><style>.cls-1{fill:#060001;}.cls-2{fill:#040000;}.cls-3{fill:#f7d821;}</style></defs><g id="design"><rect class="cls-3" x="125.96" y="71.02" width="12.32" height="8.47"/><path d="M149.93,90l-2.41-2.89c3.86-3.19,7.13-7.53,9.79-13.02l-4.57-2.38-5.29,6.72-2.96-2.33,7.25-9.18,10.46,5.47c-3.34,7.73-7.43,13.6-12.27,17.62Z"/><path d="M181.34,73.49v15.86h-3.76v-13.4l-6.95,4.59-2.08-3.14,16.24-10.71,2.08,3.16-5.52,3.64Z"/><path d="M213.38,70.33l-1.81-1.73-.7.75c-1.48,3.54-3.01,6.55-4.57,9.01l7.43,8.36-2.81,2.51-6.78-7.63c-2.03,2.79-4.22,5.37-6.55,7.7l-2.66-2.66c4.32-4.32,7.78-9.03,10.39-14.15h-9.18v-3.76l11.89-.05,1.76-1.81,1.78,1.73,1.76-1.78,1.78,1.73-1.73,1.78Z"/><path d="M101.04,75.29c2.33,1.48,3.51,3.51,3.51,6.1,0,1.96-.65,3.64-1.93,5.04-1.18,1.3-2.76,2.21-4.72,2.74l-.93-3.46c1.15-.3,2.08-.8,2.79-1.48.8-.78,1.2-1.71,1.2-2.81,0-2.46-1.58-4.07-4.77-4.79.58-1,1.48-2.48,2.66-4.47h-4.72v-3.31h10.81l-3.91,6.45Z"/><path d="M127.62,79.38c-.55,3.74-1.66,7.28-3.31,10.62l-3.16-1.56c1.38-2.81,2.33-5.72,2.86-8.73.4-2.33.6-5.39.6-9.13v-2.74h13.68v11.54h-10.66ZM134.77,71.36h-6.65c0,1.68-.05,3.19-.13,4.52h6.78v-4.52ZM136.9,89.92l-5.52-7,2.76-2.16,5.52,7-2.76,2.16Z"/><path d="M119.27,81.37v8.63h-3.51v-7.65l-2.16.6-.68-3.79,2.84-.8v-4.24h-2.58v-3.76h2.58v-3.76h3.51v3.76h2.08v3.76h-2.08v3.26l1.43-.4.68,3.79-2.11.6Z"/><polygon class="cls-3" points="89.46 33.33 79.75 26.48 77.46 11.06 92.88 12.78 89.46 33.33"/><polyline class="cls-3" points="16.37 44.75 3.41 26.25 13.8 21.63 20.65 23.34 22.36 31.9 16.08 45.04"/><path class="cls-1" d="M26.01,18.88c-1.31-1.04-2.76-1.83-4.34-2.36l4.39-6.48L14.92,2.43l-4.88,7.2,9.18,6.27c-.96-.16-1.96-.24-3-.24-5.05,0-10.31,1.89-15.64,5.63l-.58.41,5.05,7.09.57-.41c3.73-2.66,7.28-4.01,10.55-4.01,1.46,0,2.77.31,3.78.88,1.23.72,1.8,1.62,1.8,2.85,0,4.49-2.43,9.03-7.43,13.85-.25-.05,5.04,7.17,5.04,7.17,7.36-6.72,11.09-13.79,11.09-21.02,0-3.78-1.5-6.88-4.45-9.22Z"/><path class="cls-1" d="M67.01,46.39l-.63.32c-2.31,1.18-4.46,1.77-6.4,1.77-4.32,0-7.65-2.55-10.18-7.78l-.3-.63-4.43,2.12,10.27-26.22-8.12-3.19-15.9,40.75,8.12,3.19,3.81-9.86c1.76,2.89,3.89,5.24,6.34,6.98,3.13,2.22,6.62,3.34,10.39,3.34,3.3,0,6.67-.87,10.29-2.65l.63-.31-3.89-7.84Z"/><path class="cls-1" d="M92.68,14.48V5.77h-11.07l.53-4.79-8.65-.99-.64,5.77h-6.94v8.71h5.95l-1.45,12.74.71.07c3.14.29,5.28.72,6.56,1.31,2.11.9,3.13,2.41,3.13,4.61s-1.3,3.88-3.97,5.38l-.62.34,4.3,7.55.61-.33c2.45-1.35,4.45-3.13,5.93-5.28,1.63-2.35,2.46-4.89,2.46-7.56,0-3.11-.93-5.91-2.78-8.32-1.79-2.27-4.06-3.94-6.75-4.96l.64-5.55h12.06Z"/><path class="cls-1" d="M123.61,48.76c-2.87-3.06-5.84-6.23-8.76-9.39-5.25-5.79-6.68-7.69-6.91-8.22.13-.38,1.03-1.9,6.69-7.5,1.39-1.34,2.79-2.7,4.18-4.06,1.38-1.35,2.76-2.69,4.15-4.03l.52-.5-6.22-6.05-13.88,13.78c-2.79,2.74-4.2,5.54-4.2,8.34,0,2.37,1.09,4.82,3.25,7.29l4.88,5.39c4.19,4.63,7.49,8.28,9.93,10.93l.48.52,6.39-5.98-.48-.51Z"/><polygon class="cls-3" points="183.67 59.03 168.39 39.22 174.54 33.33 177.39 28.76 197.95 29.91 183.67 59.03"/><polygon class="cls-3" points="281.89 46.67 301.3 46.67 301.3 19.26 292.17 16.97 281.89 46.67"/><polygon class="cls-2" points="164 32.18 152.2 32.18 152.2 17.21 161.22 17.21 162.63 17.21 162.63 15.81 162.63 8.5 162.63 7.1 161.22 7.1 132.35 7.1 130.94 7.1 130.94 8.5 130.94 15.81 130.94 17.21 132.35 17.21 142.1 17.21 142.1 32.18 130.3 32.18 128.9 32.18 128.9 33.58 128.9 40.88 128.9 42.29 130.3 42.29 164 42.29 165.4 42.29 165.4 40.88 165.4 33.58 165.4 32.18 164 32.18"/><path class="cls-2" d="M205.23,21.07h-12.72v-7.35h-10.11v7.35h-13.88v18.05h10.11v-7.94h16.77c-1.79,8.31-6.2,15.27-13.14,20.72l-1.11.87-1.47,1.12,6.28,7.99,1.46-1.17,1.1-.87c10.59-8.34,16.57-19.55,17.77-33.31l.34-3.95.13-1.52h-1.53Z"/><path class="cls-2" d="M244.9,34.03l-4.58-5.75-.88-1.11-1.1.89c-5.82,4.71-11.74,8.18-17.63,10.33V11.64h-10.11v39.62l1.66-.31,4.38-.83c8.93-1.68,18.36-6.42,28.03-14.11l1.1-.87-.87-1.1Z"/><polygon class="cls-2" points="272.22 20.48 246.44 20.48 245.31 20.48 245.31 21.88 245.31 28.7 245.31 30.1 246.44 30.1 272.22 30.1 273.35 30.1 273.35 28.7 273.35 21.88 273.35 20.48 272.22 20.48"/><path class="cls-2" d="M307.85,11.34h-13.03c.18-2.32.27-4.46.27-6.49v-1.4h-10.11v1.4c0,2.05-.1,4.22-.31,6.49h-9.43v10.11h7.89c-1.68,7.3-4.37,13.24-8.01,17.67l-.88,1.08,1.07.89,5.6,4.67,1.09.91.9-1.09c5.04-6.15,8.6-14.26,10.59-24.13h5.67v25.22h10.11V11.34h-1.4Z"/></g></svg>