<?xml version="1.0" encoding="UTF-8"?><svg id="_レイヤー_2" xmlns="http://www.w3.org/2000/svg" viewBox="0 0 67.1 30.95"><defs><style>.cls-1{fill:#f7d821;}</style></defs><g id="design"><rect class="cls-1" y="19.95" width="67.1" height="11"/><path d="M13.32,7.98h2.25v22.64h-3.75v-7h-6.87c-.36,2.38-.78,4.56-1.34,6.48l-3.62-1.76c1.37-4.66,2.05-11.21,2.05-19.68L.1,6.87,6.35,0l9.38,4.56-2.41,3.42ZM7.36,5.21l-2.54,2.77h3.32l1.24-1.79-2.02-.98ZM7.13,17.88h-1.56l-.2,2.35h1.76v-2.35ZM7.13,11.73h-1.34c0,.81-.03,1.63-.07,2.44h1.4v-2.44ZM11.83,11.73h-1.5v2.44h.94v3.71h-.94v2.35h1.5v-8.5ZM26.32,25.57v5.38h-4.24v-5.38h-5.64v-4.23h5.64v-2.44h-5.8l.91-6.71,3.42.39-.2,2.08h1.66v-3.19h4.24v3.19h3.58v4.24h-3.58v2.44h4.4v4.23h-4.4ZM26.16,10.91v-5.96h-4.76l2.35,2.57-4.63,4.3-2.61-2.83,4.33-4.04h-4.14V.88h13.68v10.03h-4.23Z"/><path d="M36.29,7.46V3.23h3.97V.33h4.24v2.9h4.37v4.23h-12.57ZM52.12,30.69l-4.04-1.96v1.43h-10.95v-11.08h10.95v9.45l4.27-8.76,4.1,2.02-4.33,8.89ZM37.23,12.54v-3.91h10.85v3.91h-10.85ZM37.23,17.79v-3.91h10.85v3.91h-10.85ZM44.17,23h-3.13v3.26h3.13v-3.26ZM57.69,30.52v-11.56h-8.05V5.9h1.86V.81h4.24v5.08h3.39l1.56-5.57,4.37,1.21-1.21,4.37h1.95v13.06h-3.55v7h4.85v4.56h-9.42ZM61.24,10.46h-7.04v3.94h7.04v-3.94Z"/></g></svg>