<?xml version="1.0" encoding="UTF-8"?><svg id="_レイヤー_2" xmlns="http://www.w3.org/2000/svg" viewBox="0 0 85.9 29.35"><defs><style>.cls-1{fill:#f7d821;}</style></defs><g id="design"><rect class="cls-1" y="18.35" width="85.9" height="11"/><path d="M5.28,12.31c.52,3.32,1.63,5.96,3.36,7.95,1.73,1.99,4.17,3.45,7.4,4.4l-1.37,4.69c-5.31-1.56-9.15-4.4-11.53-8.47C1.04,17.3,0,12.57,0,6.71,0,4.79.1,2.61.33.23l4.85.46c-.2,2.12-.29,4.14-.29,6.06v.68l12.31-2.15.85,4.82-12.77,2.21Z"/><path d="M35.57,9.58l-6.19-4.53,2.9-3.94,6.16,4.56-2.87,3.91ZM32.96,27.85l-2.35-4.3c7.33-4.07,13.62-8.86,18.8-14.3l3.52,3.36c-5.51,5.83-12.18,10.91-19.97,15.25Z"/><path d="M83.81,18.89l-12.22-5.83v15.67h-4.89V0h4.89v11.47l1.5-3.09,12.8,6.12-2.08,4.4Z"/></g></svg>