<?xml version="1.0" encoding="UTF-8"?><svg id="_レイヤー_2" xmlns="http://www.w3.org/2000/svg" viewBox="0 0 272.85 86.64"><defs><style>.cls-1{fill:#040000;}</style></defs><g id="design"><polygon class="cls-1" points="53.1 43.46 35.26 43.46 35.26 20.82 48.9 20.82 51.02 20.82 51.02 18.7 51.02 7.65 51.02 5.52 48.9 5.52 5.22 5.52 3.09 5.52 3.09 7.65 3.09 18.7 3.09 20.82 5.22 20.82 19.96 20.82 19.96 43.46 2.12 43.46 0 43.46 0 45.59 0 56.64 0 58.76 2.12 58.76 53.1 58.76 55.22 58.76 55.22 56.64 55.22 45.59 55.22 43.46 53.1 43.46"/><path class="cls-1" d="M115.47,26.65h-19.24v-11.12h-15.29v11.12h-21v27.3h15.29v-12.01h25.37c-2.7,12.57-9.38,23.11-19.88,31.35l-1.67,1.31,1.32,1.67,6.85,8.69,1.31,1.67,1.67-1.31c16.03-12.62,25.07-29.58,26.88-50.4l.52-5.97.2-2.3h-2.31Z"/><path class="cls-1" d="M175.48,46.27l-6.92-8.69-1.33-1.67-1.66,1.35c-8.8,7.13-17.76,12.38-26.67,15.63V12.39h-15.29v59.93l2.52-.47,6.63-1.25c13.51-2.54,27.78-9.72,42.4-21.35l1.66-1.32-1.32-1.66Z"/><polygon class="cls-1" points="216.82 25.77 177.81 25.77 176.1 25.77 176.1 27.89 176.1 38.2 176.1 40.33 177.81 40.33 216.82 40.33 218.54 40.33 218.54 38.2 218.54 27.89 218.54 25.77 216.82 25.77"/><path class="cls-1" d="M270.72,11.93h-19.72c.27-3.51.4-6.74.4-9.81V0h-15.29v2.12c0,3.1-.16,6.39-.47,9.81h-14.27v15.29h11.94c-2.54,11.05-6.62,20.04-12.12,26.74l-1.34,1.63,1.62,1.35,8.47,7.07,1.64,1.37,1.36-1.65c7.63-9.3,13.02-21.57,16.02-36.5h8.58v37.64h15.29V11.93h-2.12Z"/></g></svg>