<?xml version="1.0" encoding="UTF-8"?><svg id="_レイヤー_2" xmlns="http://www.w3.org/2000/svg" viewBox="0 0 193.5 40.76"><g id="design"><path d="M18.66,38.87v-8.6l-4.26,2.24-2.11-4v11.82h-5.59v-18.06H0l6.15-9.37-4.82-2.84L9.37,0l4,3.22-4.3,5.42,4.39,2.62-3.87,5.85h2.06v-2.02h4.95v7.18h-4.3v4.34l3.78-1.98,2.58,4.86v-7.52h19.91v16.9h-19.91ZM.56,34.74v-10.06h4.73v10.06H.56ZM31.39,9.37v4h7.31v6.02h-19.78v-6.02h6.45v-4h-7.87V3.35h7.87V.13h6.02v3.22h8.47v6.02h-8.47ZM32.55,27.78h-7.87v5.29h7.87v-5.29Z"/><path d="M54.22,39.95l-2.92-5.29,9.55-5.25,2.92,5.25-9.55,5.29ZM74.13,28.29v12.47h-6.02v-12.47h-15.39v-6.02h15.39v-2.11h-12V.99h30.83v19.18h-12.81v2.11h16.38v6.02h-16.38ZM68.11,6.49h-6.19v1.98h6.19v-1.98ZM68.11,12.73h-6.19v2.37h6.19v-2.37ZM81.14,6.49h-7.01v1.98h5.5v4.26h-5.5v2.37h7.01V6.49ZM88.02,39.95l-9.63-5.29,2.88-5.25,9.63,5.25-2.88,5.29Z"/><path d="M139.79,19.09l-5.25-3.7v2.75h-3.74v4.13h10.23v6.02h-10.23v5.2h10.75v6.02h-16.77v-11.22h-6.32c-1.76,5.2-4.73,9.24-8.9,12.13l-3.7-4.86c2.62-1.85,4.6-4.3,6.02-7.27h-7.96v-6.02h9.8c.21-1.16.39-2.54.47-4.13h-2.71v-2.75l-5.72,4.26-3.57-4.86,4.04-2.97-2.92-3.14,4.39-4.08,3.44,3.66,2.88-2.11h-3.18V1.2h13.72l4.34,2.97,2.75-3.87,4.39,3.1-2.71,3.87,1.68,1.16,2.79-3.91,4.39,3.1-2.79,3.87,3.83,2.67-3.44,4.95ZM122.72,7.22l-6.97,5.12h14.32l-7.35-5.12ZM124.79,18.14h-4.56c-.13,1.59-.26,2.97-.39,4.13h4.94v-4.13Z"/><path d="M186.06,21.11l2.37,3.35c-1.85,1.29-3.57,2.54-5.25,3.78,2.24,1.76,5.25,4.04,9.03,6.88l-3.7,4.99-15.61-11.95,9.63-7.05h-8.56l.69,1.59-7.7,3.48v7.31l9.42-.99.6,6.02-16.04,1.59v-11.22l-5.72,2.58-2.49-5.5,10.79-4.86h-9.85v-5.16h16.77v-1.89h-12.51v-4.6h12.51v-1.68h-14.88V2.62h14.88V.04h6.02v2.58h14.62v5.16h-14.62v1.68h11.83v4.6h-11.83v1.89h17.03v5.16h-7.44Z"/></g></svg>