<?xml version="1.0" encoding="UTF-8"?><svg id="_レイヤー_2" xmlns="http://www.w3.org/2000/svg" viewBox="0 0 188.62 39.77"><defs><style>.cls-1{fill:#4062e2;}</style></defs><g id="design"><path class="cls-1" d="M27.56,6.66l-3.05-2.97-2.15,2.15v6.06h-5.8l2.02,11.09c-2.92.3-4.95.73-6.11,1.21-2.15.9-3.23,2.49-3.23,4.69s1.29,3.87,3.83,5.29l-3.18,5.59c-2.11-1.16-3.78-2.67-5.03-4.47-1.38-1.98-2.06-4.09-2.06-6.32,0-2.58.77-4.86,2.28-6.88,1.5-2.02,3.53-3.44,5.98-4.34l-1.03-5.85H0v-6.45h8.81l-.77-4.3,6.36-1.16.99,5.46h4.73l-1.72-1.63,3.01-3.1,3.1,2.97,2.97-3.1,3.1,2.97-3.01,3.1Z"/><path class="cls-1" d="M57.38,38.31c-3.23,0-6.15-.95-8.81-2.84-2.41-1.72-4.43-4.09-6.06-7.1l-3.61,9.33-6.02-2.36L46.46.52l6.02,2.37-9.42,24.04,4.77-2.28c2.32,4.82,5.5,7.22,9.55,7.22,1.85,0,3.83-.56,5.93-1.63l2.88,5.8c-3.05,1.5-5.98,2.28-8.81,2.28Z"/><path class="cls-1" d="M107.13,33.88c-1.85,2.49-4.43,3.74-7.78,3.74-2.02,0-3.78-.77-5.29-2.32-1.55-1.55-2.32-3.31-2.32-5.33,0-2.24.73-4.09,2.15-5.55,1.42-1.46,3.22-2.19,5.46-2.19,1.25,0,2.45.26,3.61.73-.73-4.34-3.31-6.54-7.74-6.54-2.71,0-5.46,1.03-8.17,3.1v17.76h-6.45v-11.14c-.77.99-1.63,2.15-2.62,3.48l-5.2-3.74c2.88-4,5.46-7.14,7.83-9.33v-4.3h-5.33v-6.45h5.33v-3.78h6.45v9.89c2.62-1.29,5.37-1.93,8.17-1.93,4.47,0,8.04,1.46,10.66,4.39,2.49,2.79,3.74,6.49,3.74,11.01,0,3.48-.82,6.32-2.49,8.51ZM103.18,24.81l-2.32,4.26c-.52-.26-.99-.39-1.46-.39-.82,0-1.2.43-1.2,1.25.21.6.65,1.03,1.2,1.25,2.54,0,3.78-1.76,3.78-5.33v-1.03Z"/><path class="cls-1" d="M142.52,38.31c-3.23,0-6.15-.95-8.81-2.84-2.41-1.72-4.43-4.09-6.06-7.1l-3.61,9.33-6.02-2.36L131.6.52l6.02,2.37-9.42,24.04,4.77-2.28c2.32,4.82,5.5,7.22,9.55,7.22,1.85,0,3.83-.56,5.93-1.63l2.88,5.8c-3.05,1.5-5.98,2.28-8.81,2.28Z"/><circle class="cls-1" cx="163.12" cy="32.72" r="4"/><circle class="cls-1" cx="173.87" cy="32.72" r="4"/><circle class="cls-1" cx="184.62" cy="32.72" r="4"/></g></svg>