<?xml version="1.0" encoding="UTF-8"?><svg id="_レイヤー_2" xmlns="http://www.w3.org/2000/svg" viewBox="0 0 119.58 29.52"><defs><style>.cls-1{fill:#f7d821;}</style></defs><g id="design"><rect class="cls-1" x="0" y="18.52" width="119.58" height="11"/><path d="M0,25.87v-4.89h15.47v-12.71H.2V3.39h20.17v22.48H0Z"/><path d="M49.77,22.67l-6.09-4.76c-2.83,4.4-5.99,8.27-9.48,11.6l-3.39-3.55c3.29-3.16,6.29-6.84,8.99-11.04l-6.65-5.21,3-3.84,6.16,4.79c1.6-2.93,3.06-6.06,4.37-9.41l4.56,1.79c-1.5,3.81-3.16,7.36-5.02,10.69l6.55,5.12-3,3.84Z"/><path d="M69.25,9.58l-6.19-4.53,2.9-3.94,6.16,4.56-2.87,3.91ZM66.65,27.85l-2.35-4.3c7.33-4.07,13.62-8.86,18.8-14.3l3.52,3.36c-5.51,5.83-12.18,10.91-19.97,15.25Z"/><path d="M117.49,18.89l-12.22-5.83v15.67h-4.89V0h4.89v11.47l1.5-3.09,12.8,6.12-2.08,4.4Z"/></g></svg>