<?xml version="1.0" encoding="UTF-8"?><svg id="_レイヤー_2" xmlns="http://www.w3.org/2000/svg" viewBox="0 0 83.39 37.99"><defs><style>.cls-1{fill:#d8233d;}</style></defs><g id="design"><path class="cls-1" d="M0,36.99v-5.6h4.6V13.8h5.6v17.6h5.8V7H1V1.4h34.19v5.6h-13.6v8.2h11v5.6h-11v10.6h14.6v5.6H0Z"/><path class="cls-1" d="M62.04,9.8h2.76v27.79h-4.6v-8.6h-8.44c-.44,2.92-.96,5.6-1.64,7.96l-4.44-2.16c1.68-5.72,2.52-13.76,2.52-24.16l-2.4-2.2L53.48,0l11.52,5.6-2.96,4.2ZM54.72,6.4l-3.12,3.4h4.08l1.52-2.2-2.48-1.2ZM54.44,21.96h-1.92l-.24,2.88h2.16v-2.88ZM54.44,14.4h-1.64c0,1-.04,2-.08,3h1.72v-3ZM60.2,14.4h-1.84v3h1.16v4.56h-1.16v2.88h1.84v-10.44ZM77.99,31.4v6.6h-5.2v-6.6h-6.92v-5.2h6.92v-3h-7.12l1.12-8.24,4.2.48-.24,2.56h2.04v-3.92h5.2v3.92h4.4v5.2h-4.4v3h5.4v5.2h-5.4ZM77.79,13.4v-7.32h-5.84l2.88,3.16-5.68,5.28-3.2-3.48,5.32-4.96h-5.08V1.08h16.8v12.32h-5.2Z"/></g></svg>